<?xml version="1.0" encoding="utf-8"?>
<svg viewBox="0 0 12.7 15.875" xmlns="http://www.w3.org/2000/svg">
  <g transform="matrix(1, 0, 0, 1, -0.5003660282242247, -285.2999855696326)">
    <path style="fill: rgb(255, 255, 255);" d="m 6.297539,285.29403 a 1.7185396,1.7185396 0 0 0 -1.2602276,0.60872 2.7066947,2.7066947 0 0 0 -0.6354959,1.60955 0.41735962,0.41735962 0 0 1 -0.7002651,0.28537 2.5780724,2.5780724 0 0 0 -2.2302726,-0.63989 0.98202267,0.98202267 0 0 0 -0.74583894,0.64589 3.6170002,3.6170002 0 0 0 0.0743466,2.54804 0.33519983,0.33519983 0 0 0 0.59313494,0.0527 0.24550566,0.24550566 0 0 1 0.1243201,-0.0995 0.60712329,0.60712329 0 0 1 0.8105672,0.61872 1.7351694,1.7351694 0 0 0 0.7306341,1.45928 0.49101133,0.49101133 0 0 0 0.6698758,-0.0967 3.1415895,3.1415895 0 0 1 0.1906651,-0.22022 0.20237771,0.20237771 0 0 1 0.2905715,-0.0344 2.0927395,2.0927395 0 0 1 0.7362412,1.30418 4.9577627,4.9577627 0 0 0 1.2226553,2.59001 0.24550566,0.24550566 0 0 0 0.3645087,0 4.9577627,4.9577627 0 0 0 1.2222665,-2.59001 2.0927395,2.0927395 0 0 1 0.735832,-1.30418 0.20237771,0.20237771 0 0 1 0.2901827,0.0344 3.1415895,3.1415895 0 0 1 0.1906446,0.22022 0.49101133,0.49101133 0 0 0 0.6698962,0.0967 1.7351694,1.7351694 0 0 0 0.7306346,-1.45928 0.60712329,0.60712329 0 0 1 0.810976,-0.61872 0.24550566,0.24550566 0 0 1 0.123911,0.0995 0.33519983,0.33519983 0 0 0 0.593135,-0.0527 3.6170002,3.6170002 0 0 0 0.07394,-2.54804 0.98202267,0.98202267 0 0 0 -0.74543,-0.64589 2.5780724,2.5780724 0 0 0 -2.2306608,0.63989 0.41735962,0.41735962 0 0 1 -0.6998764,-0.28537 2.7066947,2.7066947 0 0 0 -0.6354959,-1.60955 1.7185396,1.7185396 0 0 0 -1.3657615,-0.60872 z m -0.8953096,1.99325 a 0.29341238,0.29341238 0 0 1 0.0088,0 0.29341238,0.29341238 0 0 1 0.1630589,0.0588 0.94078855,0.94078855 0 0 1 0.3641199,0.8925 0.08183521,0.08183521 0 0 1 -0.095916,0.0684 0.94078855,0.94078855 0 0 1 -0.7242492,-0.63631 0.29341238,0.29341238 0 0 1 0.2837773,-0.38371 z m 1.8953551,0 a 0.29341238,0.29341238 0 0 1 0.2841662,0.38331 0.94078864,0.94078864 0 0 1 -0.7242288,0.63631 0.08183521,0.08183521 0 0 1 -0.095527,-0.0684 0.94078864,0.94078864 0 0 1 0.3637106,-0.8925 0.29341238,0.29341238 0 0 1 0.171879,-0.0588 z m -2.1351549,1.67311 a 0.04091764,0.04091764 0 0 1 0.034769,0.0139 1.5218245,1.5218245 0 0 0 2.3058264,0 0.04091764,0.04091764 0 0 1 0.071932,0.0276 3.2682331,3.2682331 0 0 1 -0.5423837,1.75504 0.8183522,0.8183522 0 0 1 -1.364943,0 3.2682331,3.2682331 0 0 1 -0.5427725,-1.75504 v 0 a 0.04091764,0.04091764 0 0 1 0.037183,-0.0416 z" stroke="none"/>
  </g>
</svg>